<?xml version="1.0" encoding="UTF-8" standalone="no"?>
<!-- Created with Inkscape (http://www.inkscape.org/) -->

<svg
   width="132.02708mm"
   height="124.08958mm"
   viewBox="0 0 132.02708 124.08958"
   version="1.1"
   id="svg1"
   xmlns="http://www.w3.org/2000/svg"
   xmlns:svg="http://www.w3.org/2000/svg">
  <defs
     id="defs1" />
  <g
     id="layer1"
     transform="translate(-18.256253,-38.100003)">
    <path
       style="fill:none;stroke:#ff0000;stroke-width:1.05833"
       d="m 33.254825,100.33784 c 15.416988,-2.166024 30.833978,-4.332049 45.93258,-5.415061 15.098603,-1.083012 29.878235,-1.083012 44.658155,-1.083012"
       id="path26"
       transform="matrix(1.0014929,0,0,0.99997197,-0.04964252,0.00272153)" />
    <path
       style="fill:none;stroke:#ff0000;stroke-width:1.05833"
       d="m 33.254825,99.955597 c 16.818532,1.911193 33.637066,3.822393 48.767508,4.777993 15.130443,0.9556 28.572257,0.9556 42.014347,0.9556"
       id="path27"
       transform="matrix(1.0021068,0,0,0.99996033,-0.07007172,0.00407912)" />
    <path
       style="fill:none;stroke:#ff0000;stroke-width:1.05833"
       d="m 33.254825,100.14672 c 16.37259,5.7973 32.745173,11.59459 47.748206,14.49324 15.003033,2.89865 28.635969,2.89865 42.269169,2.89865"
       id="path28"
       transform="matrix(1.0125746,0,0,1.0733434,-0.40966528,-7.3150828)" />
    <path
       style="fill:none;stroke:#ff0000;stroke-width:1.05833"
       d="m 33.254825,99.955597 c 16.372588,9.747103 32.745176,19.494213 48.034893,24.367763 15.289717,4.87355 29.495992,4.87355 43.702562,4.87355"
       id="path29"
       transform="matrix(0.99101989,0,0,1.0511061,0.30389681,-5.0929635)" />
    <path
       style="fill:none;stroke:#ff0000;stroke-width:1.05833"
       d="m 33.063706,100.33784 c 17.073356,14.14285 34.146715,28.28571 49.372718,35.35714 15.226003,7.07143 28.604116,7.07143 41.982496,7.07143"
       id="path30"
       transform="matrix(1.0013972,0,0,1.0266077,-0.04220703,-2.6624842)" />
    <path
       style="fill:none;stroke:#ff0000;stroke-width:1.05833"
       d="m 33.254825,100.33784 c 17.328184,18.09266 34.656367,36.18532 49.850515,45.23166 15.194148,9.04633 28.25373,9.04633 41.31358,9.04633"
       id="path31"
       transform="matrix(0.99991133,0,0,1.0278611,0.00697364,-2.7894447)" />
    <path
       style="fill:none;stroke:#ff0000;stroke-width:1.05833"
       d="m 33.063706,99.573357 c 18.15637,-5.92471 36.312742,-11.84942 51.602441,-14.811774 15.289699,-2.962355 27.712233,-2.962355 40.135013,-2.962355"
       id="path32"
       transform="matrix(0.99263081,0,0,1.0000817,0.24320851,-0.00740763)" />
    <path
       style="fill:none;stroke:#ff0000;stroke-width:1.05833"
       d="M 32.872587,100.14672 C 51.411197,89.826255 69.949806,79.505791 85.175793,74.345559 100.40178,69.185326 112.31467,69.185326 124.2278,69.185326"
       id="path33" />
    <path
       style="fill:none;stroke:#ff0000;stroke-width:1.05833"
       d="M 33.063706,100.14672 C 51.729729,86.258688 70.395753,72.370655 85.589887,65.426639 100.78402,58.482623 112.50579,58.482623 124.2278,58.482623"
       id="path34"
       transform="matrix(0.99987897,0,0,1.0406301,0.00949881,-4.0804773)" />
    <path
       style="fill:none;stroke:#000000;stroke-width:1.05833"
       d="M 33.063706,100.52896 C 51.984557,82.181468 70.905406,63.833977 86.099533,54.660231 101.29366,45.486486 112.76062,45.486486 124.2278,45.486486"
       id="path35"
       transform="matrix(0.999935,0,0,1.0206023,0.00509974,-2.0759464)" />
    <rect
       style="fill:none;stroke:#000000;stroke-width:1.22769"
       id="rect36"
       width="28.40564"
       height="10.678555"
       x="121.26385"
       y="38.713848"
       ry="4.0019484" />
    <rect
       style="fill:none;stroke:#000000;stroke-width:1.22769"
       id="rect36-0"
       width="28.40564"
       height="10.678555"
       x="120.73469"
       y="150.89719"
       ry="4.0019484" />
    <rect
       style="fill:none;stroke:#000000;stroke-width:1.05833"
       id="rect37"
       width="26.458332"
       height="24.870832"
       x="18.785418"
       y="87.047913"
       ry="3.4704797" />
  </g>
</svg>
